<?xml version="1.0" encoding="UTF-8" standalone="no"?>
<!DOCTYPE svg PUBLIC "-//W3C//DTD SVG 1.1//EN" "http://www.w3.org/Graphics/SVG/1.1/DTD/svg11.dtd">
<svg xmlns="http://www.w3.org/2000/svg" version="1.1" xmlns:xlink="http://www.w3.org/1999/xlink" xmlns:svgjs="http://svgjs.com/svgjs" width="100%" height="100%">
<svg width="100%" height="100%" viewBox="0 0 32 32" version="1.1" xmlns="http://www.w3.org/2000/svg" xmlns:xlink="http://www.w3.org/1999/xlink" xml:space="preserve" xmlns:serif="http://www.serif.com/" style="fill-rule:evenodd;clip-rule:evenodd;stroke-linejoin:round;stroke-miterlimit:2;">
    <g id="black-logo"  transform="matrix(1,0,0,1,-1,-1)">
        <g transform="matrix(0.933333,0,0,1,1,1)">
            <rect x="0" y="0" width="15" height="2"/>
        </g>
        <g transform="matrix(0.666667,0,0,1,5,9)">
            <rect x="0" y="0" width="15" height="2"/>
        </g>
        <g transform="matrix(0.933333,0,0,1,1,13)">
            <rect x="0" y="0" width="15" height="2"/>
        </g>
        <rect x="1" y="1" width="2" height="14"/>
        <rect x="5" y="5" width="2" height="6"/>
        <rect x="13" y="1" width="2" height="10"/>
        <rect x="5" y="5" width="6" height="2"/>
        <rect x="1" y="17" width="14" height="2"/>
        <rect x="1" y="29" width="14" height="2"/>
        <g transform="matrix(1,0,0,1.4,0,-9.6)">
            <rect x="7" y="19" width="2" height="10"/>
        </g>
        <rect x="1" y="21" width="4" height="2"/>
        <rect x="1" y="25" width="4" height="2"/>
        <rect x="3" y="21" width="2" height="6"/>
        <rect x="11" y="21" width="4" height="2"/>
        <rect x="11" y="25" width="4" height="2"/>
        <rect x="11" y="21" width="2" height="6"/>
        <rect x="17" y="1" width="2" height="14"/>
        <rect x="17" y="13" width="6" height="2"/>
        <rect x="21" y="1" width="10" height="2"/>
        <rect x="29" y="1" width="2" height="14"/>
        <rect x="25" y="13" width="6" height="2"/>
        <g transform="matrix(1,0,0,1.25,0,-1.25)">
            <rect x="21" y="5" width="2" height="8"/>
        </g>
        <g transform="matrix(1,0,0,1.25,0,-1.25)">
            <rect x="25" y="5" width="2" height="8"/>
        </g>
        <rect x="21" y="5" width="6" height="2"/>
        <g transform="matrix(1.07692,0,0,1,-2.38462,0)">
            <rect x="18" y="17" width="13" height="2"/>
        </g>
        <rect x="17" y="17" width="2" height="14"/>
        <rect x="17" y="29" width="14" height="2"/>
        <rect x="29" y="21" width="2" height="10"/>
        <rect x="21" y="21" width="10" height="2"/>
        <g transform="matrix(1,0,0,0.857143,0,3)">
            <rect x="21" y="21" width="2" height="7"/>
        </g>
        <g transform="matrix(0.857143,0,0,1,3,0)">
            <rect x="21" y="25" width="7" height="2"/>
        </g>
    </g>
</svg>
<style>@media (prefers-color-scheme: light) { :root { filter: none; } }
    @media (prefers-color-scheme: dark) { :root { filter: invert(100%); } }
    </style>
</svg>